<svg width="1000" height="545" viewBox="0 0 1000 545" fill="none" xmlns="http://www.w3.org/2000/svg">
<g id="Brand=Logo, Product=Hi Platform, Color=Default, Side=Left">
<g id="Brand Icon">
<path id="Icon" fill-rule="evenodd" clip-rule="evenodd" d="M349.847 261.774C349.847 249.615 359.706 239.755 371.865 239.755C384.024 239.755 393.884 249.615 393.884 261.774V294.801V387.768V434.627L351.306 459.211L349.847 459.939V415.902V349.046C336.89 356.544 321.859 360.856 305.81 360.856C257.235 360.856 217.85 321.532 217.743 272.982H217.737C217.737 248.661 198.021 228.945 173.7 228.945C149.379 228.945 129.664 248.661 129.664 272.982V283.792C129.664 295.951 119.807 305.81 107.645 305.81C95.4862 305.81 85.6269 295.951 85.6269 283.792V250.765V173.7V110.939L128.205 86.3547L129.664 85.6269V129.664V196.719C142.621 189.22 157.651 184.908 173.7 184.908C222.275 184.908 261.661 224.232 261.768 272.783H261.774C261.774 297.104 281.489 316.82 305.81 316.82C330.132 316.82 349.847 297.104 349.847 272.783V261.774ZM393.883 195.619C393.883 183.515 384.066 173.701 371.962 173.701C359.855 173.701 350.042 183.515 350.042 195.619C350.042 207.726 359.855 217.539 371.962 217.539C384.066 217.539 393.883 207.726 393.883 195.619ZM107.549 327.829C119.656 327.829 129.47 337.642 129.47 349.749C129.47 361.853 119.656 371.667 107.549 371.667C95.4422 371.667 85.6287 361.853 85.6287 349.749C85.6287 337.642 95.4422 327.829 107.549 327.829Z" fill="#004359"/>
</g>
<path id="h" fill-rule="evenodd" clip-rule="evenodd" d="M497.257 327.156V295.942C497.257 294.322 497.141 292.783 496.911 291.318C496.679 289.854 496.236 288.563 495.581 287.444C494.927 286.328 494.058 285.441 492.979 284.786C491.899 284.132 490.511 283.802 488.817 283.802C485.505 283.802 482.96 284.979 481.187 287.328C479.413 289.679 478.529 292.588 478.529 296.059V327.156H459.569V239.756H478.529V276.866H478.759C480.07 274.554 482.15 272.493 485.003 270.679C487.853 268.872 491.285 267.964 495.294 267.964C499.223 267.964 502.517 268.658 505.178 270.043C507.835 271.432 509.994 273.224 511.652 275.419C513.309 277.618 514.502 280.141 515.236 282.994C515.967 285.844 516.333 288.698 516.333 291.548V327.156H497.257Z" fill="#00AEEF"/>
<path id="i" fill-rule="evenodd" clip-rule="evenodd" d="M551.721 254.263C552.299 252.991 552.589 251.624 552.589 250.159C552.589 248.698 552.299 247.328 551.721 246.055C551.143 244.783 550.372 243.685 549.409 242.762C548.446 241.835 547.29 241.104 545.941 240.563C544.592 240.025 543.186 239.756 541.721 239.756C540.18 239.756 538.755 240.043 537.443 240.621C536.134 241.199 534.978 241.952 533.975 242.875C532.972 243.802 532.201 244.9 531.663 246.172C531.125 247.444 530.855 248.774 530.855 250.159C530.855 253.013 531.895 255.459 533.975 257.502C536.057 259.545 538.638 260.566 541.721 260.566C543.186 260.566 544.592 260.297 545.941 259.756C547.29 259.218 548.446 258.484 549.409 257.56C550.372 256.633 551.143 255.536 551.721 254.263ZM551.202 327.156H532.242V269.581H551.202V327.156Z" fill="#00AEEF"/>
<path id="p" fill-rule="evenodd" clip-rule="evenodd" d="M505.233 403.32C505.233 401.47 504.946 399.66 504.368 397.886C503.79 396.116 502.94 394.553 501.824 393.204C500.704 391.856 499.298 390.758 497.603 389.911C495.906 389.064 493.943 388.639 491.707 388.639C489.548 388.639 487.622 389.064 485.928 389.911C484.23 390.758 482.787 391.874 481.591 393.262C480.395 394.651 479.472 396.232 478.817 398.002C478.16 399.776 477.833 401.587 477.833 403.437C477.833 405.287 478.16 407.097 478.817 408.871C479.472 410.645 480.395 412.223 481.591 413.611C482.787 414.996 484.23 416.116 485.928 416.963C487.622 417.813 489.548 418.235 491.707 418.235C493.943 418.235 495.906 417.813 497.603 416.963C499.298 416.116 500.704 414.996 501.824 413.611C502.94 412.223 503.79 410.623 504.368 408.813C504.946 407.002 505.233 405.171 505.233 403.32ZM523.616 403.32C523.616 407.33 522.998 411.183 521.766 414.88C520.533 418.58 518.741 421.837 516.389 424.651C514.038 427.464 511.169 429.721 507.778 431.415C504.383 433.109 500.533 433.957 496.215 433.957C492.671 433.957 489.319 433.244 486.157 431.819C482.998 430.394 480.53 428.449 478.759 425.981H478.527V460.085H459.567V374.764H477.603V381.816H477.949C479.723 379.504 482.169 377.483 485.291 375.749C488.414 374.015 492.093 373.146 496.331 373.146C500.493 373.146 504.27 373.957 507.662 375.574C511.053 377.192 513.921 379.388 516.276 382.165C518.625 384.938 520.438 388.158 521.707 391.816C522.98 395.48 523.616 399.314 523.616 403.32Z" fill="#00AEEF"/>
<path id="l" fill-rule="evenodd" clip-rule="evenodd" d="M532.3 432.339H551.609V344.939H532.3V432.339Z" fill="#00AEEF"/>
<path id="a" fill-rule="evenodd" clip-rule="evenodd" d="M595.871 407.251H593.443C591.363 407.251 589.262 407.349 587.143 407.542C585.021 407.734 583.134 408.101 581.476 408.639C579.819 409.178 578.452 409.97 577.372 411.01C576.293 412.049 575.754 413.419 575.754 415.114C575.754 416.193 576.002 417.117 576.507 417.887C577.005 418.658 577.641 419.276 578.415 419.737C579.183 420.199 580.069 420.529 581.073 420.719C582.073 420.915 583.039 421.01 583.962 421.01C587.816 421.01 590.764 419.951 592.806 417.829C594.849 415.71 595.871 412.841 595.871 409.217V407.251ZM561.073 382.627C564.461 379.389 568.412 376.961 572.923 375.343C577.43 373.725 582.036 372.915 586.739 372.915C591.592 372.915 595.696 373.514 599.051 374.707C602.403 375.902 605.118 377.753 607.201 380.257C609.28 382.762 610.803 385.921 611.767 389.737C612.73 393.551 613.213 398.08 613.213 403.321V432.34H595.871V426.211H595.525C594.057 428.603 591.843 430.453 588.877 431.762C585.907 433.071 582.69 433.728 579.222 433.728C576.91 433.728 574.519 433.416 572.054 432.802C569.586 432.187 567.332 431.184 565.293 429.795C563.25 428.407 561.571 426.56 560.262 424.248C558.95 421.933 558.299 419.083 558.299 415.691C558.299 411.529 559.433 408.178 561.709 405.633C563.981 403.089 566.91 401.126 570.495 399.737C574.079 398.349 578.066 397.425 582.461 396.964C586.852 396.499 591.131 396.269 595.293 396.269V395.343C595.293 392.493 594.29 390.392 592.287 389.043C590.28 387.695 587.816 387.019 584.889 387.019C582.189 387.019 579.586 387.597 577.085 388.753C574.577 389.909 572.44 391.297 570.669 392.915L561.073 382.627Z" fill="#00AEEF"/>
<path id="t" fill-rule="evenodd" clip-rule="evenodd" d="M642.694 388.869V410.921C642.694 413.627 643.214 415.658 644.254 417.013C645.294 418.368 647.162 419.043 649.862 419.043C650.786 419.043 651.768 418.967 652.81 418.814C653.85 418.658 654.719 418.429 655.41 418.12L655.642 431.991C654.33 432.456 652.673 432.86 650.67 433.205C648.667 433.554 646.664 433.725 644.658 433.725C640.804 433.725 637.569 433.242 634.948 432.279C632.327 431.313 630.226 429.921 628.648 428.105C627.067 426.288 625.93 424.126 625.236 421.615C624.541 419.105 624.196 416.3 624.196 413.212V388.869H614.948V374.765H624.08V359.621H642.694V374.765H656.22V388.869H642.694Z" fill="#00AEEF"/>
<path id="f" fill-rule="evenodd" clip-rule="evenodd" d="M705.515 358.926C704.82 358.693 704.013 358.504 703.087 358.348C702.163 358.195 701.236 358.115 700.313 358.115C698.539 358.115 697.114 358.427 696.035 359.042C694.955 359.66 694.108 360.485 693.49 361.528C692.872 362.568 692.45 363.745 692.221 365.054C691.989 366.366 691.872 367.675 691.872 368.984V374.764H704.707V388.868H691.872V432.338H672.912V388.868H662.392V374.764H672.912V369.216C672.912 365.672 673.298 362.299 674.068 359.1C674.839 355.901 676.166 353.088 678.059 350.66C679.946 348.231 682.487 346.305 685.689 344.88C688.885 343.455 692.872 342.739 697.652 342.739C699.273 342.739 700.869 342.837 702.45 343.03C704.028 343.222 705.475 343.513 706.787 343.895L705.515 358.926Z" fill="#00AEEF"/>
<path id="o" fill-rule="evenodd" clip-rule="evenodd" d="M750.603 403.321C750.603 401.471 750.294 399.66 749.679 397.886C749.058 396.116 748.174 394.553 747.018 393.204C745.863 391.856 744.434 390.758 742.74 389.911C741.046 389.064 739.08 388.639 736.844 388.639C734.609 388.639 732.642 389.064 730.948 389.911C729.254 390.758 727.844 391.856 726.728 393.204C725.612 394.553 724.765 396.116 724.187 397.886C723.609 399.66 723.318 401.471 723.318 403.321C723.318 405.171 723.609 406.981 724.187 408.755C724.765 410.529 725.63 412.128 726.786 413.553C727.942 414.978 729.367 416.116 731.064 416.963C732.759 417.813 734.725 418.235 736.96 418.235C739.196 418.235 741.162 417.813 742.856 416.963C744.551 416.116 745.979 414.978 747.135 413.553C748.291 412.128 749.159 410.529 749.737 408.755C750.315 406.981 750.603 405.171 750.603 403.321ZM768.869 403.321C768.869 408.024 768.018 412.281 766.327 416.094C764.63 419.911 762.318 423.149 759.388 425.807C756.459 428.467 753.067 430.529 749.217 431.993C745.361 433.455 741.239 434.189 736.844 434.189C732.526 434.189 728.422 433.455 724.532 431.993C720.639 430.529 717.251 428.467 714.358 425.807C711.468 423.149 709.174 419.911 707.48 416.094C705.783 412.281 704.936 408.024 704.936 403.321C704.936 398.62 705.783 394.382 707.48 390.602C709.174 386.828 711.468 383.63 714.358 381.009C717.251 378.388 720.639 376.382 724.532 374.997C728.422 373.608 732.526 372.914 736.844 372.914C741.239 372.914 745.361 373.608 749.217 374.997C753.067 376.382 756.459 378.388 759.388 381.009C762.318 383.63 764.63 386.828 766.327 390.602C768.018 394.382 768.869 398.62 768.869 403.321Z" fill="#00AEEF"/>
<path id="r" fill-rule="evenodd" clip-rule="evenodd" d="M814.187 390.372C813.337 390.14 812.511 389.987 811.701 389.911C810.894 389.834 810.102 389.794 809.331 389.794C806.79 389.794 804.649 390.256 802.915 391.177C801.181 392.1 799.796 393.217 798.753 394.522C797.713 395.828 796.961 397.25 796.499 398.788C796.037 400.327 795.805 401.669 795.805 402.822V432.339H776.845V374.834H795.111V383.158H795.343C796.805 380.21 798.887 377.804 801.585 375.941C804.282 374.079 807.404 373.146 810.952 373.146C811.719 373.146 812.472 373.186 813.206 373.262C813.936 373.339 814.536 373.455 814.998 373.608L814.187 390.372Z" fill="#00AEEF"/>
<path id="m" fill-rule="evenodd" clip-rule="evenodd" d="M895.741 432.339V400.892C895.741 399.275 895.625 397.712 895.395 396.21C895.163 394.709 894.738 393.418 894.123 392.339C893.505 391.259 892.677 390.391 891.637 389.736C890.597 389.082 889.227 388.755 887.533 388.755C885.915 388.755 884.509 389.1 883.313 389.794C882.117 390.489 881.117 391.412 880.307 392.568C879.499 393.724 878.9 395.054 878.515 396.556C878.129 398.061 877.937 399.62 877.937 401.241V432.339H858.976V399.504C858.976 396.192 858.322 393.571 857.013 391.645C855.701 389.718 853.619 388.755 850.768 388.755C847.762 388.755 845.432 389.95 843.775 392.339C842.117 394.727 841.288 397.657 841.288 401.125V432.339H822.212V374.764H840.594V382.743H840.827C841.521 381.51 842.386 380.314 843.429 379.158C844.469 378.002 845.72 376.981 847.184 376.094C848.646 375.21 850.285 374.495 852.099 373.957C853.909 373.418 855.894 373.146 858.053 373.146C862.215 373.146 865.741 373.996 868.631 375.691C871.521 377.385 873.775 379.813 875.395 382.972C877.319 379.966 879.787 377.58 882.793 375.804C885.799 374.033 889.46 373.146 893.778 373.146C897.707 373.146 901.001 373.859 903.661 375.284C906.319 376.712 908.46 378.562 910.077 380.834C911.695 383.109 912.869 385.651 913.603 388.464C914.334 391.278 914.701 394.033 914.701 396.73V432.339H895.741Z" fill="#00AEEF"/>
</g>
</svg>
